/* XPM */
static char * backgroundtopright_inactive_xpm[] = {
"6 26 2 1",
" 	c None",
".	c #9ea6b1 s inactive_color_1",
".     ",
"...   ",
"....  ",
"..... ",
"..... ",
"......",
"......",
"......",
"......",
"......",
"......",
"......",
"......",
"......",
"......",
"......",
"......",
"......",
"......",
"......",
"......",
"......",
"......",
"......",
"......",
"......"};
