#define close_hover_width 11
#define close_hover_height 11
static unsigned char close_hover_bits[] = {
   0x00, 0x00, 0xfc, 0x07, 0xf6, 0x07, 0xf3, 0x05, 0x7f, 0x06, 0x9f, 0x07,
   0xef, 0x05, 0x7f, 0x02, 0x9f, 0x01, 0x6e, 0x00, 0x1c, 0x00 };
