#define close_width 11
#define close_height 11
static unsigned char close_bits[] = {
   0xff, 0x07, 0x01, 0x04, 0x61, 0x04, 0x61, 0x04, 0x7d, 0x04, 0xb5, 0x05,
   0x35, 0x04, 0x71, 0x04, 0x99, 0x04, 0x8d, 0x04, 0x05, 0x05 };
