#define desk_hover_width 11
#define desk_hover_height 11
static unsigned char desk_hover_bits[] = {
   0x0c, 0x00, 0x1e, 0x00, 0x3f, 0x00, 0x3f, 0x00, 0x3f, 0x00, 0x3f, 0x00,
   0x3f, 0x00, 0x3f, 0x00, 0x3f, 0x00, 0x1e, 0x00, 0x0c, 0x00 };
