#define desk_width 11
#define desk_height 11
static unsigned char desk_bits[] = {
   0x0c, 0x00, 0x12, 0x00, 0x21, 0x00, 0x21, 0x00, 0x21, 0x00, 0x21, 0x00,
   0x21, 0x00, 0x21, 0x00, 0x21, 0x00, 0x12, 0x00, 0x0c, 0x00 };
