#define desk_toggled_hover_width 11
#define desk_toggled_hover_height 11
static unsigned char desk_toggled_hover_bits[] = {
   0x0c, 0x00, 0x12, 0x00, 0x21, 0x00, 0x29, 0x00, 0x0d, 0x00, 0xff, 0x07,
   0x0d, 0x00, 0x29, 0x00, 0x21, 0x00, 0x12, 0x00, 0x0c, 0x00 };
