#define desk_toggled_width 11
#define desk_toggled_height 11
static unsigned char desk_toggled_bits[] = {
   0x0c, 0x00, 0x12, 0x00, 0x21, 0x00, 0x21, 0x01, 0x01, 0x03, 0xf9, 0x07,
   0x01, 0x03, 0x21, 0x01, 0x21, 0x00, 0x12, 0x00, 0x0c, 0x00 };
