#define iconify_hover_width 11
#define iconify_hover_height 11
static unsigned char iconify_hover_bits[] = {
   0x00, 0x00, 0x70, 0x00, 0x70, 0x00, 0x70, 0x00, 0x70, 0x00, 0x70, 0x00,
   0xfc, 0x01, 0xf8, 0x00, 0x70, 0x00, 0x20, 0x00, 0x00, 0x00 };
