#define iconify_width 11
#define iconify_height 11
static unsigned char iconify_bits[] = {
   0x00, 0x00, 0xde, 0x03, 0xfe, 0x03, 0xfe, 0x03, 0xae, 0x03, 0xfc, 0x01,
   0xae, 0x03, 0xfe, 0x03, 0xfe, 0x03, 0xde, 0x03, 0x00, 0x00 };
