#define max_width 11
#define max_height 11
static unsigned char max_bits[] = {
   0x00, 0x00, 0xe8, 0x00, 0xec, 0x01, 0xde, 0x02, 0x40, 0x03, 0x8e, 0x03,
   0x16, 0x00, 0xda, 0x03, 0xbc, 0x01, 0xb8, 0x00, 0x00, 0x00 };
