#define max_toggled_width 11
#define max_toggled_height 11
static unsigned char max_toggled_bits[] = {
   0x70, 0x00, 0x50, 0x00, 0x50, 0x00, 0x50, 0x00, 0x50, 0x00, 0x50, 0x00,
   0xde, 0x03, 0x04, 0x01, 0x88, 0x00, 0x50, 0x00, 0x20, 0x00 };
