#define max_toggled_hover_width 11
#define max_toggled_hover_height 11
static unsigned char max_toggled_hover_bits[] = {
   0x20, 0x00, 0x20, 0x00, 0x20, 0x00, 0x20, 0x00, 0x20, 0x00, 0x24, 0x01,
   0xac, 0x01, 0xfc, 0x01, 0xf8, 0x00, 0x70, 0x00, 0x20, 0x00 };
