#define shade_width 11
#define shade_height 11
static unsigned char shade_bits[] = {
   0x00, 0x00, 0xfe, 0x01, 0x00, 0x00, 0x08, 0x00, 0x1c, 0x00, 0x3e, 0x00,
   0x08, 0x00, 0x08, 0x00, 0x08, 0x00, 0x00, 0x00, 0x00, 0x00 };
