#define shade_toggled_width 11
#define shade_toggled_height 11
static unsigned char shade_toggled_bits[] = {
   0x00, 0x00, 0xfe, 0x01, 0x00, 0x00, 0x08, 0x00, 0x08, 0x00, 0x08, 0x00,
   0x88, 0x00, 0x88, 0x01, 0xf8, 0x03, 0x80, 0x01, 0x80, 0x00 };
