#define shade_toggled_hover_width 11
#define shade_toggled_hover_height 11
static unsigned char shade_toggled_hover_bits[] = {
   0x00, 0x00, 0xfe, 0x01, 0x00, 0x00, 0x08, 0x00, 0x08, 0x00, 0x08, 0x00,
   0x3e, 0x00, 0x1c, 0x00, 0x08, 0x00, 0x00, 0x00, 0x00, 0x00 };
