#define minimize_width 11
#define minimize_height 11
static unsigned char minimize_bits[] = {
   0x00, 0x00, 0x20, 0x00, 0x24, 0x01, 0xa8, 0x00, 0x00, 0x00, 0x8e, 0x03,
   0x00, 0x00, 0xa8, 0x00, 0x24, 0x01, 0x20, 0x00, 0x00, 0x00 };
